<svg width="800" height="600" xmlns="http://www.w3.org/2000/svg">
  <defs>
    <linearGradient id="grad1" x1="0%" y1="0%" x2="100%" y2="100%">
      <stop offset="0%" style="stop-color:#1e3a8a;stop-opacity:1" />
      <stop offset="100%" style="stop-color:#4c1d95;stop-opacity:1" />
    </linearGradient>
  </defs>
  <rect width="800" height="600" fill="url(#grad1)" />
  <g transform="translate(400, 300)">
    <path d="M-100,-50 L0,-100 L100,-50 L100,50 L0,100 L-100,50 Z" fill="none" stroke="#ffffff" stroke-width="8" opacity="0.2" />
    <path d="M-60,-30 L0,-60 L60,-30 L60,30 L0,60 L-60,30 Z" fill="none" stroke="#ffffff" stroke-width="5" opacity="0.3" />
    <circle cx="0" cy="0" r="40" fill="none" stroke="#ffffff" stroke-width="10" opacity="0.2" />
    <path d="M-30,0 L30,0 M0,-30 L0,30" stroke="#ffffff" stroke-width="8" opacity="0.3" />
    <circle cx="0" cy="0" r="15" fill="#ffffff" opacity="0.4" />
  </g>
  <g transform="translate(400, 150)">
    <path d="M-50,-25 L0,-50 L50,-25 L50,25 L0,50 L-50,25 Z" fill="#ffffff" opacity="0.1" />
    <rect x="-40" y="-10" width="80" height="20" fill="#ffffff" opacity="0.2" />
    <circle cx="0" cy="0" r="20" fill="#ffffff" opacity="0.2" />
  </g>
  <g transform="translate(200, 400)">
    <circle cx="0" cy="0" r="30" fill="#ffffff" opacity="0.1" />
    <path d="M-20,-20 L20,20 M-20,20 L20,-20" stroke="#ffffff" stroke-width="6" opacity="0.2" />
  </g>
  <g transform="translate(600, 400)">
    <circle cx="0" cy="0" r="30" fill="#ffffff" opacity="0.1" />
    <path d="M-20,-20 L20,20 M-20,20 L20,-20" stroke="#ffffff" stroke-width="6" opacity="0.2" />
  </g>
  <g transform="translate(400, 450)">
    <path d="M-80,-20 L0,-40 L80,-20 L80,20 L0,40 L-80,20 Z" fill="#ffffff" opacity="0.1" />
  </g>
</svg>